<?xml version="1.0" encoding="UTF-8"?>
<svg width="96px" height="68px" viewBox="0 0 96 68" version="1.1" xmlns="http://www.w3.org/2000/svg" xmlns:xlink="http://www.w3.org/1999/xlink">
    <!-- Generator: Sketch 63.1 (92452) - https://sketch.com -->
    <title>Group 3</title>
    <desc>Created with Sketch.</desc>
    <defs>
        <path d="M34.6658176,28.1648711 C33.4698176,28.1648711 32.4991509,27.1942045 32.4991509,25.9982045 C32.4991509,24.8022045 33.4698176,23.8315378 34.6658176,23.8315378 C35.8618176,23.8315378 36.8324843,24.8022045 36.8324843,25.9982045 C36.8324843,27.1942045 35.8618176,28.1648711 34.6658176,28.1648711 M25.9991509,28.1648711 C24.8031509,28.1648711 23.8324843,27.1942045 23.8324843,25.9982045 C23.8324843,24.8022045 24.8031509,23.8315378 25.9991509,23.8315378 C27.1951509,23.8315378 28.1658176,24.8022045 28.1658176,25.9982045 C28.1658176,27.1942045 27.1951509,28.1648711 25.9991509,28.1648711 M17.3324843,28.1648711 C16.1364843,28.1648711 15.1658176,27.1942045 15.1658176,25.9982045 C15.1658176,24.8022045 16.1364843,23.8315378 17.3324843,23.8315378 C18.5284843,23.8315378 19.4991509,24.8022045 19.4991509,25.9982045 C19.4991509,27.1942045 18.5284843,28.1648711 17.3324843,28.1648711 M41.3196509,10.6777045 C36.3709843,5.72903781 29.5221509,3.52120448 22.5259843,4.60237114 C13.6924843,5.98037114 6.36915092,13.0957045 4.71598426,21.9075378 C3.92081759,26.1498711 4.37798426,30.4702045 6.03981759,34.3983711 C6.25215092,34.8967045 6.31715092,35.3647045 6.23265092,35.7828711 L4.37581759,45.0735378 C4.23281759,45.7842045 4.45598426,46.5187045 4.96731759,47.0300378 C5.37681759,47.4395378 5.92931759,47.6648711 6.49915092,47.6648711 C6.63998426,47.6648711 6.78298426,47.6518711 6.92381759,47.6215378 L16.2036509,45.7668711 C16.7366509,45.6650378 17.2544843,45.8145378 17.5989843,45.9575378 C21.5293176,47.6193711 25.8496509,48.0743711 30.0898176,47.2813711 C38.9016509,45.6282045 46.0169843,38.3048711 47.3949843,29.4713711 C48.4848176,22.4773711 46.2704843,15.6285378 41.3196509,10.6777045" id="path-1"></path>
        <path d="M26.0004337,21.6650878 C27.1964337,21.6650878 28.1671004,22.6357545 28.1671004,23.8317545 C28.1671004,25.0277545 27.1964337,25.9984211 26.0004337,25.9984211 C24.8044337,25.9984211 23.8337671,25.0277545 23.8337671,23.8317545 C23.8337671,22.6357545 24.8044337,21.6650878 26.0004337,21.6650878 Z M34.6671004,21.6650878 C35.8631004,21.6650878 36.8337671,22.6357545 36.8337671,23.8317545 C36.8337671,25.0277545 35.8631004,25.9984211 34.6671004,25.9984211 C33.4711004,25.9984211 32.5004337,25.0277545 32.5004337,23.8317545 C32.5004337,22.6357545 33.4711004,21.6650878 34.6671004,21.6650878 Z M17.3337671,21.6650878 C18.5297671,21.6650878 19.5004337,22.6357545 19.5004337,23.8317545 C19.5004337,25.0277545 18.5297671,25.9984211 17.3337671,25.9984211 C16.1377671,25.9984211 15.1671004,25.0277545 15.1671004,23.8317545 C15.1671004,22.6357545 16.1377671,21.6650878 17.3337671,21.6650878 Z M43.1136337,26.6373711 C42.0151337,33.6877045 36.3319671,39.5355378 29.2924671,40.8550378 C25.8929671,41.4963711 22.4306337,41.1302045 19.2889671,39.7998711 C18.3984671,39.4228711 17.4776337,39.2322045 16.5741337,39.2322045 C16.1624671,39.2322045 15.7551337,39.2712045 15.3543004,39.3513711 L9.26163373,40.5690378 L10.4814671,34.4655378 C10.7371337,33.1980378 10.5811337,31.8417045 10.0329671,30.5438711 C8.70263373,27.4022045 8.33863373,23.9420378 8.9778004,20.5403711 C10.2973004,13.5008711 16.1429671,7.81770448 23.1954671,6.71920448 L23.1954671,6.71920448 C28.8071337,5.84603781 34.2953004,7.61403781 38.2559671,11.5747045 C42.2188004,15.5375378 43.9889671,21.0278711 43.1136337,26.6373711 M41.3218004,8.51103781 C36.3709671,3.56237114 29.5243004,1.35453781 22.5281337,2.43570448 C13.6946337,3.81370448 6.3713004,10.9290378 4.71813373,19.7408711 C3.9208004,23.9832045 4.38013373,28.3035378 6.04196707,32.2317045 C6.25213373,32.7322045 6.31713373,33.1980378 6.2348004,33.6162045 L4.3758004,42.9068711 C4.2328004,43.6175378 4.45596707,44.3520378 4.96946707,44.8633711 C5.37896707,45.2750378 5.93146707,45.4982045 6.5013004,45.4982045 C6.64213373,45.4982045 6.78296707,45.4852045 6.92596707,45.4570378 L16.2058004,43.6002045 C16.7388004,43.4983711 17.2544671,43.6478711 17.5989671,43.7908711 C21.5314671,45.4527045 25.8518004,45.9098711 30.0898004,45.1147045 C38.9038004,43.4615378 46.0191337,36.1382045 47.3971337,27.3047045 C48.4848004,20.3128711 46.2726337,13.4618711 41.3218004,8.51103781" id="path-3"></path>
    </defs>
    <g id="Page-1" stroke="none" stroke-width="1" fill="none" fill-rule="evenodd">
        <g id="1.0-Landing-Page-Copy-5" transform="translate(-445.000000, -4650.000000)">
            <g id="Why-Choose" transform="translate(-41.000000, 4428.000000)">
                <g id="why-choose-text" transform="translate(426.000000, 218.000000)">
                    <g id="Group-4">
                        <g id="Group-3" transform="translate(56.000000, 0.000000)">
                            <g id="27)-Icon/message-circle-fill">
                                <mask id="mask-2" fill="white">
                                    <use xlink:href="#path-1"></use>
                                </mask>
                                <use id="🎨-Icon-Сolor" fill="#F7F9FC" fill-rule="evenodd" xlink:href="#path-1"></use>
                            </g>
                            <g id="27)-Icon/message-circle" transform="translate(78.000000, 52.000000) scale(-1, 1) translate(-78.000000, -52.000000) translate(52.000000, 26.000000)">
                                <mask id="mask-4" fill="white">
                                    <use xlink:href="#path-3"></use>
                                </mask>
                                <use id="🎨-Icon-Сolor" fill="#F7F9FC" fill-rule="evenodd" xlink:href="#path-3"></use>
                            </g>
                        </g>
                    </g>
                </g>
            </g>
        </g>
    </g>
</svg>