<?xml version="1.0" encoding="UTF-8"?>
<svg width="63px" height="45px" viewBox="0 0 63 45" version="1.1" xmlns="http://www.w3.org/2000/svg" xmlns:xlink="http://www.w3.org/1999/xlink">
    <!-- Generator: Sketch 63.1 (92452) - https://sketch.com -->
    <title>Group 6</title>
    <desc>Created with Sketch.</desc>
    <defs>
        <path d="M22.59875,16.748125 C23.701875,15.423125 25.6675,15.245 27.001875,16.348125 C28.326875,17.454375 28.505,19.423125 27.401875,20.75125 L27.401875,20.75125 L13.41125,37.5325 L26.89875,54.291875 C27.976875,55.635625 27.7675,57.60125 26.420625,58.685625 C25.845625,59.148125 25.151875,59.37625 24.464375,59.37625 C23.551875,59.37625 22.645625,58.97625 22.026875,58.210625 L22.026875,58.210625 L6.939375,39.460625 C6.005,38.298125 6.020625,36.641875 6.97375,35.498125 L6.97375,35.498125 Z M48.5790625,16.315625 C49.9228125,15.228125 51.8884375,15.446875 52.9728125,16.790625 L52.9728125,16.790625 L68.0603125,35.540625 C68.9946875,36.7 68.9790625,38.35625 68.0259375,39.503125 L68.0259375,39.503125 L52.4009375,58.253125 C51.7821875,58.99375 50.8946875,59.375 49.9978125,59.375 C49.2915625,59.375 48.5853125,59.1375 47.9978125,58.653125 C46.6728125,57.546875 46.4946875,55.575 47.5978125,54.246875 L47.5978125,54.246875 L61.5884375,37.465625 L48.1009375,20.709375 C47.0228125,19.3625 47.2321875,17.396875 48.5790625,16.315625 Z" id="path-1"></path>
    </defs>
    <g id="Page-1" stroke="none" stroke-width="1" fill="none" fill-rule="evenodd">
        <g id="1.0-Landing-Page-Copy-5" transform="translate(-824.000000, -4661.000000)">
            <g id="Why-Choose" transform="translate(-41.000000, 4428.000000)">
                <g id="why-choose-text" transform="translate(426.000000, 218.000000)">
                    <g id="Group-4-Copy" transform="translate(377.000000, 0.000000)">
                        <g id="Group-6" transform="translate(56.000000, 0.000000)">
                            <g id="27)-Icon/code">
                                <mask id="mask-2" fill="white">
                                    <use xlink:href="#path-1"></use>
                                </mask>
                                <use id="🎨-Icon-Сolor" fill="#F7F9FC" fill-rule="evenodd" xlink:href="#path-1"></use>
                            </g>
                        </g>
                    </g>
                </g>
            </g>
        </g>
    </g>
</svg>