<?xml version="1.0" encoding="UTF-8"?>
<svg width="700px" height="89px" viewBox="0 0 700 89" version="1.1" xmlns="http://www.w3.org/2000/svg" xmlns:xlink="http://www.w3.org/1999/xlink">
    <!-- Generator: Sketch 63.1 (92452) - https://sketch.com -->
    <title>logo</title>
    <desc>Created with Sketch.</desc>
    <g id="Page-1" stroke="none" stroke-width="1" fill="none" fill-rule="evenodd">
        <g id="logo">
            <g id="text" transform="translate(111.413200, 9.800800)">
                <path d="M14.264,65.75 C9.798,62.957 6.305,58.916 3.783,53.635 C1.261,48.354 -7.10542736e-15,42.131 -7.10542736e-15,34.973 C-7.10542736e-15,27.885 1.279,21.698 3.835,16.412 C6.391,11.131 9.934,7.075 14.468,4.245 C19.001,1.416 24.165,2.13162821e-13 29.959,2.13162821e-13 C33.708,2.13162821e-13 37.151,0.768 40.287,2.304 C43.422,3.835 46.08,5.797 48.263,8.182 L43.457,13.604 C39.571,9.512 35.072,7.465 29.959,7.465 C25.665,7.465 21.933,8.575 18.764,10.789 C15.594,13.006 13.139,16.178 11.401,20.3 C9.663,24.423 8.793,29.247 8.793,34.769 C8.793,40.358 9.663,45.249 11.401,49.44 C13.139,53.635 15.594,56.855 18.764,59.105 C21.933,61.353 25.665,62.48 29.959,62.48 C32.958,62.48 35.651,61.865 38.037,60.638 C40.423,59.411 42.741,57.535 44.991,55.015 L49.899,60.23 C44.308,66.705 37.492,69.944 29.449,69.944 C23.789,69.944 18.728,68.547 14.264,65.75" id="Fill-1" fill="#231F20"></path>
                <path d="M90.4188,57.4687 C93.3158,53.7187 94.7648,48.8107 94.7648,42.7427 C94.7648,36.6767 93.3158,31.7497 90.4188,27.9687 C87.5208,24.1837 83.6868,22.2927 78.9158,22.2927 C74.1438,22.2927 70.3088,24.1837 67.4118,27.9687 C64.5138,31.7497 63.0658,36.6767 63.0658,42.7427 C63.0658,48.8107 64.5138,53.7187 67.4118,57.4687 C70.3088,61.2187 74.1438,63.0917 78.9158,63.0917 C83.6868,63.0917 87.5208,61.2187 90.4188,57.4687 M66.6458,66.7737 C62.8948,64.5917 59.9128,61.4417 57.6978,57.3137 C55.4818,53.1907 54.3748,48.3357 54.3748,42.7427 C54.3748,37.0847 55.4818,32.1947 57.6978,28.0717 C59.9128,23.9477 62.8948,20.7947 66.6458,18.6137 C70.3928,16.4307 74.4828,15.3387 78.9158,15.3387 C83.3458,15.3387 87.4368,16.4307 91.1858,18.6137 C94.9338,20.7947 97.9178,23.9477 100.1328,28.0717 C102.3478,32.1947 103.4558,37.0847 103.4558,42.7427 C103.4558,48.3357 102.3478,53.1907 100.1328,57.3137 C97.9178,61.4417 94.9338,64.5917 91.1858,66.7737 C87.4368,68.9547 83.3458,70.0467 78.9158,70.0467 C74.4828,70.0467 70.3928,68.9547 66.6458,66.7737" id="Fill-3" fill="#231F20"></path>
                <path d="M117.6166,64.7295 C114.7866,61.1835 113.3726,55.9335 113.3726,48.9815 L113.3726,16.5675 L121.8606,16.5675 L121.8606,47.8565 C121.8606,53.0385 122.7446,56.8215 124.5186,59.2065 C126.2906,61.5915 129.2216,62.7865 133.3126,62.7865 C136.1066,62.7865 138.6626,62.0175 140.9816,60.4845 C143.2986,58.9515 145.8886,56.4135 148.7526,52.8675 L148.7526,16.5675 L157.1376,16.5675 L157.1376,68.7145 L150.2856,68.7145 L149.5706,59.5145 L149.1606,59.5145 C146.4336,62.8545 143.5716,65.4445 140.5726,67.2865 C137.5726,69.1255 134.2656,70.0465 130.6536,70.0465 C124.7906,70.0465 120.4446,68.2735 117.6166,64.7295" id="Fill-5" fill="#231F20"></path>
                <path d="M171.5536,16.5674 L178.5066,16.5674 L179.2226,29.0434 L179.5296,29.0434 C182.1886,24.7474 185.4246,21.3914 189.2436,18.9684 C193.0606,16.5494 197.2196,15.3384 201.7186,15.3384 C203.6606,15.3384 205.4496,15.5184 207.0846,15.8754 L204.9916,23.3164 C203.7636,23.0434 202.2296,22.9054 200.3886,22.9054 C192.2096,22.9054 185.3916,27.9164 179.9376,37.9374 L179.9376,68.7144 L171.5536,68.7144 L171.5536,16.5674 Z" id="Fill-7" fill="#231F20"></path>
                <path d="M217.4164,67.7431 C213.7504,66.2121 210.4444,64.2531 207.5014,61.8651 L211.1064,56.3441 C213.7504,58.6631 216.4994,60.4181 219.3554,61.6091 C222.2084,62.8041 225.4994,63.3981 229.2264,63.3981 C233.0134,63.3981 235.9114,62.6171 237.9254,61.0461 C239.9374,59.4791 240.9464,57.4691 240.9464,55.0141 C240.9464,52.9021 239.8774,51.0601 237.7454,49.4941 C235.6114,47.9251 231.9314,46.3581 226.7024,44.7891 C221.7734,43.3561 217.7614,41.3981 214.6664,38.9091 C211.5704,36.4221 210.0244,33.4721 210.0244,30.0641 C210.0244,25.7701 211.6314,22.2421 214.8484,19.4811 C218.0624,16.7211 222.5844,15.3391 228.4154,15.3391 C231.5394,15.3391 234.6654,15.9531 237.7894,17.1801 C240.9134,18.4071 243.6514,19.9761 245.9954,21.8851 L242.3874,27.4051 C237.9994,23.7261 233.3424,21.8851 228.4154,21.8851 C224.5684,21.8851 221.8024,22.6001 220.1214,24.0321 C218.4374,25.4621 217.5964,27.3391 217.5964,29.6551 C217.5964,31.7011 218.7374,33.4391 221.0234,34.8701 C223.3054,36.3021 226.6114,37.6661 230.9394,38.9601 C237.0694,40.8001 241.5154,42.8981 244.2814,45.2491 C247.0434,47.6001 248.4284,50.6871 248.4284,54.5051 C248.4284,57.3671 247.6624,59.9731 246.1274,62.3241 C244.5964,64.6771 242.3564,66.5541 239.4124,67.9491 C236.4664,69.3461 232.9804,70.0471 228.9564,70.0471 C224.9294,70.0471 221.0804,69.2781 217.4164,67.7431" id="Fill-9" fill="#231F20"></path>
                <path d="M293.1727,38.5517 C293.1727,33.3037 291.8767,29.2297 289.2847,26.3317 C286.6937,23.4357 283.0807,21.9867 278.4477,21.9867 C274.2887,21.9867 270.6077,23.4867 267.4027,26.4877 C264.1987,29.4877 262.2907,33.5077 261.6767,38.5517 L293.1727,38.5517 Z M266.2297,66.7227 C262.1707,64.5077 258.9687,61.3387 256.6167,57.2117 C254.2647,53.0887 253.0887,48.2647 253.0887,42.7427 C253.0887,37.2907 254.2647,32.4857 256.6167,28.3267 C258.9687,24.1697 262.0867,20.9637 265.9727,18.7157 C269.8577,16.4657 273.9837,15.3387 278.3457,15.3387 C285.3657,15.3387 290.8877,17.5577 294.9077,21.9867 C298.9317,26.4177 300.9447,32.3497 300.9447,39.7797 C300.9447,41.6877 300.8417,43.3247 300.6357,44.6877 L261.7807,44.6877 C261.9847,50.2777 263.8417,54.7577 267.3527,58.1327 C270.8637,61.5077 275.3457,63.1947 280.7997,63.1947 C283.5937,63.1947 286.2007,62.7857 288.6217,61.9667 C291.0407,61.1487 293.4797,59.9237 295.9337,58.2847 L298.8987,63.9087 C292.7627,68.0007 286.3877,70.0467 279.7777,70.0467 C274.7997,70.0467 270.2807,68.9377 266.2297,66.7227 L266.2297,66.7227 Z" id="Fill-11" fill="#231F20"></path>
                <path d="M312.1366,1.2295 L327.2706,1.2295 L337.3156,25.2575 L339.9726,34.6655 L340.2816,34.6655 L342.8366,25.2575 L352.6766,1.2295 L367.8086,1.2295 L367.8086,68.7145 L355.6416,68.7145 L355.6416,46.2205 C355.6416,42.8805 355.8616,38.0925 356.3046,31.8525 C356.7456,25.6175 357.1746,20.3185 357.5826,15.9535 L357.1746,15.9535 L351.7536,34.3605 L343.2456,50.7185 L336.4946,50.7185 L327.8856,34.3605 L322.5686,15.9535 L322.1586,15.9535 C322.5686,20.3185 322.9936,25.6175 323.4366,31.8525 C323.8776,38.0925 324.0996,42.8805 324.0996,46.2205 L324.0996,68.7145 L312.1366,68.7145 L312.1366,1.2295 Z" id="Fill-13" fill="#38B780"></path>
                <path d="M410.0389,53.1728 L410.0389,44.1768 C403.0179,44.5848 398.0919,45.5578 395.2649,47.0888 C392.4329,48.6238 391.0189,50.6518 391.0189,53.1728 C391.0189,54.8768 391.6489,56.1548 392.9119,57.0078 C394.1729,57.8608 395.8929,58.2848 398.0729,58.2848 C401.9619,58.2848 405.9489,56.5838 410.0389,53.1728 M381.1509,65.4948 C378.1179,62.5278 376.6029,58.7958 376.6029,54.2978 C376.6029,48.3658 379.2099,43.8868 384.4249,40.8528 C389.6399,37.8188 398.1779,35.9268 410.0389,35.1768 C409.7659,32.6558 408.7249,30.7118 406.9189,29.3498 C405.1119,27.9868 402.5379,27.3038 399.2009,27.3038 C396.8139,27.3038 394.4609,27.7468 392.1439,28.6328 C389.8279,29.5188 387.7129,30.7118 385.8049,32.2118 L380.4869,22.3948 C383.0089,20.2818 386.1969,18.5608 390.0499,17.2318 C393.8969,15.9018 397.9389,15.2358 402.1649,15.2358 C409.3909,15.2358 415.0139,17.2158 419.0369,21.1698 C423.0599,25.1238 425.0699,30.9508 425.0699,38.6538 L425.0699,68.7148 L412.7989,68.7148 L411.6769,62.7858 L411.2659,62.7858 C405.1299,67.5568 399.1299,69.9438 393.2689,69.9438 C388.2239,69.9438 384.1849,68.4618 381.1509,65.4948" id="Fill-15" fill="#38B780"></path>
                <polygon id="Fill-17" fill="#38B780" points="435.3954 1.2295 450.4274 1.2295 450.4274 38.0385 450.8354 38.0385 469.4464 16.5675 485.9074 16.5675 466.6864 37.9375 487.4434 68.7145 471.1844 68.7145 457.8894 47.1415 450.4274 55.5255 450.4274 68.7145 435.3954 68.7145"></polygon>
                <path d="M524.0497,37.0185 C524.0497,33.8145 523.2317,31.3085 521.5967,29.5025 C519.9597,27.6965 517.4697,26.7925 514.1327,26.7925 C511.2687,26.7925 508.7957,27.6635 506.7177,29.3985 C504.6377,31.1375 503.2937,33.6785 502.6787,37.0185 L524.0497,37.0185 Z M501.1957,66.6715 C496.9367,64.4905 493.5787,61.3385 491.1257,57.2115 C488.6727,53.0885 487.4427,48.2335 487.4427,42.6415 C487.4427,37.1875 488.6727,32.3825 491.1257,28.2245 C493.5787,24.0685 496.8327,20.8615 500.8897,18.6135 C504.9457,16.3635 509.2547,15.2365 513.8237,15.2365 C518.8677,15.2365 523.1827,16.3105 526.7587,18.4575 C530.3387,20.6065 533.0487,23.5715 534.8907,27.3545 C536.7297,31.1375 537.6517,35.4525 537.6517,40.2885 C537.6517,42.1305 537.4457,44.3805 537.0357,47.0395 L502.8817,47.0395 C503.3597,50.8565 504.9457,53.7185 507.6377,55.6265 C510.3287,57.5355 513.6537,58.4905 517.6087,58.4905 C519.8587,58.4905 522.0207,58.1835 524.1007,57.5715 C526.1807,56.9585 528.3797,56.0355 530.6957,54.8105 L535.6047,63.9085 C532.7417,65.7495 529.5207,67.2165 525.9427,68.3065 C522.3627,69.3965 518.9017,69.9445 515.5617,69.9445 C510.2447,69.9445 505.4557,68.8525 501.1957,66.6715 L501.1957,66.6715 Z" id="Fill-19" fill="#38B780"></path>
                <path d="M546.8397,16.5674 L559.1097,16.5674 L560.3387,28.0174 L560.6447,28.0174 C563.0987,23.7934 566.0967,20.6064 569.6407,18.4584 C573.1867,16.3104 577.0387,15.2364 581.1977,15.2364 C583.3097,15.2364 585.0467,15.4094 586.4117,15.7494 C587.0927,15.9204 587.8187,16.1414 588.5867,16.4154 L585.6997,29.3634 C584.7407,29.1194 583.9217,28.9254 583.2427,28.7864 C582.0797,28.5484 580.6517,28.4284 578.9477,28.4284 C575.6057,28.4284 572.4367,29.4694 569.4367,31.5464 C566.4367,33.6284 563.9147,36.8804 561.8687,41.3124 L561.8687,68.7144 L546.8397,68.7144 L546.8397,16.5674 Z" id="Fill-21" fill="#38B780"></path>
            </g>
            <g id="icon" transform="translate(0.001000, -0.000500)" fill="#38B780">
                <path d="M88.686,-7.95807864e-13 L88.686,88.686 L0,88.686 L0,-7.95807864e-13 L88.686,-7.95807864e-13 Z M70.4096,53.7427 L46.6196,53.7427 L46.6196,68.0107 L32.1446,68.0107 L32.1446,77.7377 L70.4096,77.7377 L70.4096,53.7427 Z M27.6002,25.2022 L18.0782,25.2022 L18.0782,63.4672 L42.0742,63.4672 L42.0742,39.4722 L27.6002,39.4722 L27.6002,25.2022 Z M70.41,10.933 L32.145,10.933 L32.145,34.928 L70.41,34.928 L70.41,10.933 Z" id="Combined-Shape"></path>
            </g>
        </g>
    </g>
</svg>